<?xml version="1.0" standalone="no"?>
<!DOCTYPE svg PUBLIC "-//W3C//DTD SVG 20010904//EN"
 "http://www.w3.org/TR/2001/REC-SVG-20010904/DTD/svg10.dtd">
<svg version="1.0" xmlns="http://www.w3.org/2000/svg"
 width="700.000000pt" height="700.000000pt" viewBox="0 0 700.000000 700.000000"
 preserveAspectRatio="xMidYMid meet">
<metadata>
Created by potrace 1.14, written by Peter Selinger 2001-2017
</metadata>
<g transform="translate(0.000000,700.000000) scale(0.100000,-0.100000)"
fill="#000000" stroke="none">
<path d="M2127 5834 c-1 -1 -58 -4 -127 -8 -69 -3 -136 -8 -150 -10 -24 -4
-133 -21 -210 -32 -19 -3 -48 -9 -65 -14 -16 -5 -44 -12 -61 -15 -66 -11 -273
-76 -379 -118 -256 -103 -454 -222 -508 -308 -45 -69 -44 -7 -42 -2064 1
-1850 2 -1952 19 -1990 61 -133 199 -205 338 -173 22 5 88 37 147 71 332 196
696 287 1126 282 195 -3 264 -10 490 -51 144 -27 428 -138 571 -224 47 -29
100 -58 118 -65 90 -37 194 -22 297 45 164 106 466 223 659 254 57 9 94 16
115 21 82 18 400 25 563 13 321 -25 637 -125 905 -287 96 -57 132 -69 209 -66
123 5 231 93 263 214 9 35 11 510 10 1991 -1 1850 -2 1947 -19 1985 -31 69
-74 113 -165 169 -179 111 -393 205 -602 264 -136 39 -148 42 -284 67 -119 22
-127 23 -212 30 -43 4 -87 9 -98 11 -27 6 -414 6 -445 0 -14 -3 -58 -7 -99
-11 -41 -3 -84 -8 -95 -10 -12 -2 -39 -7 -61 -10 -34 -5 -201 -39 -245 -50
-177 -45 -345 -107 -507 -186 l-81 -41 -94 45 c-264 126 -540 208 -822 244
-23 3 -52 6 -66 8 -45 7 -388 23 -393 19z m323 -597 c14 -3 63 -11 110 -17
176 -25 392 -89 555 -165 l95 -44 0 -1576 c0 -1498 -1 -1577 -17 -1570 -160
65 -475 138 -683 160 -148 15 -383 19 -530 10 -82 -6 -253 -27 -324 -41 -11
-2 -37 -7 -56 -10 -73 -13 -219 -53 -320 -87 -58 -19 -107 -33 -109 -31 -2 2
-5 708 -5 1570 -1 1380 1 1567 14 1578 53 46 348 151 520 185 138 27 152 29
229 37 36 3 68 8 70 9 5 6 422 -2 451 -8z m2620 0 c14 -3 52 -8 85 -12 33 -3
76 -10 95 -15 19 -5 49 -11 65 -13 93 -14 305 -84 430 -143 44 -20 82 -38 84
-41 4 -3 8 -3153 4 -3153 0 0 -45 15 -100 34 -155 53 -375 104 -518 121 -27 3
-68 8 -90 11 -140 19 -457 18 -630 -1 -235 -26 -506 -89 -687 -160 -17 -7 -18
72 -18 1570 l0 1576 93 43 c167 78 382 143 532 162 22 2 46 7 53 9 7 2 47 7
90 11 42 4 79 8 81 10 6 5 403 -3 431 -9z"/>
</g>
</svg>
